<?xml version="1.0" encoding="UTF-8" standalone="no"?>
<!DOCTYPE svg PUBLIC "-//W3C//DTD SVG 1.1//EN" "http://www.w3.org/Graphics/SVG/1.1/DTD/svg11.dtd">
<svg width="100%" height="100%" viewBox="600 0 2598 785" version="1.1" xmlns="http://www.w3.org/2000/svg" xmlns:xlink="http://www.w3.org/1999/xlink" xml:space="preserve" xmlns:serif="http://www.serif.com/" style="fill-rule:evenodd;clip-rule:evenodd;stroke-linejoin:round;stroke-miterlimit:2;">
    <g transform="matrix(1,0,0,1,-1,-1)">
        <g transform="matrix(2.98961,0,0,0.797229,-4711.81,-429.835)">
            <g id="Logo" transform="matrix(1.78719,0,0,6.70195,-1592.69,-5934.9)">

                <g id="Text" transform="matrix(2.74533,0,0,2.74533,-56.0787,-931.281)">
                    <g transform="matrix(50,0,0,50,719.92,736.858)">
                        <path d="M0.399,-0.69C0.411,-0.69 0.422,-0.686 0.432,-0.679C0.442,-0.672 0.448,-0.662 0.452,-0.65L0.652,-0L0.496,-0L0.355,-0.508C0.352,-0.519 0.349,-0.53 0.347,-0.542C0.344,-0.553 0.342,-0.564 0.34,-0.575L0.313,-0.575C0.311,-0.564 0.308,-0.553 0.306,-0.542C0.304,-0.53 0.301,-0.519 0.298,-0.508L0.157,-0L0.001,-0L0.201,-0.65C0.204,-0.662 0.211,-0.672 0.221,-0.679C0.23,-0.686 0.241,-0.69 0.254,-0.69L0.399,-0.69ZM0.505,-0.297L0.505,-0.183L0.147,-0.183L0.147,-0.297L0.505,-0.297Z" style="fill:rgb(37,37,37);fill-rule:nonzero;"/>
                    </g>
                    <g transform="matrix(50,0,0,50,752.845,736.858)">
                        <path d="M0.686,-0.507C0.731,-0.507 0.765,-0.495 0.788,-0.472C0.811,-0.449 0.823,-0.415 0.823,-0.37L0.823,-0L0.677,-0L0.677,-0.324C0.676,-0.345 0.672,-0.36 0.664,-0.369C0.656,-0.378 0.642,-0.382 0.622,-0.382C0.61,-0.382 0.599,-0.38 0.588,-0.377C0.577,-0.374 0.565,-0.369 0.551,-0.362C0.537,-0.354 0.52,-0.344 0.5,-0.332L0.492,-0.413C0.524,-0.444 0.555,-0.468 0.586,-0.483C0.617,-0.499 0.65,-0.507 0.686,-0.507ZM0.178,-0.494L0.193,-0.396L0.208,-0.383L0.208,-0L0.061,-0L0.061,-0.494L0.178,-0.494ZM0.378,-0.507C0.422,-0.507 0.455,-0.495 0.478,-0.472C0.501,-0.449 0.513,-0.415 0.513,-0.37L0.513,-0L0.371,-0L0.371,-0.324C0.371,-0.345 0.367,-0.36 0.358,-0.369C0.349,-0.378 0.335,-0.382 0.316,-0.382C0.305,-0.382 0.293,-0.381 0.282,-0.378C0.271,-0.375 0.258,-0.369 0.244,-0.362C0.23,-0.355 0.213,-0.345 0.192,-0.332L0.183,-0.413C0.215,-0.444 0.247,-0.468 0.278,-0.483C0.308,-0.499 0.342,-0.507 0.378,-0.507Z" style="fill:rgb(37,37,37);fill-rule:nonzero;"/>
                    </g>
                    <g transform="matrix(50,0,0,50,795.87,736.858)">
                        <path d="M0.321,-0.507C0.362,-0.507 0.397,-0.501 0.426,-0.49C0.455,-0.479 0.476,-0.46 0.491,-0.434C0.506,-0.408 0.514,-0.372 0.514,-0.327L0.514,-0L0.397,-0L0.376,-0.107L0.366,-0.122L0.366,-0.327C0.365,-0.351 0.36,-0.368 0.349,-0.378C0.338,-0.389 0.317,-0.394 0.287,-0.394C0.261,-0.394 0.229,-0.393 0.191,-0.392C0.153,-0.39 0.114,-0.388 0.074,-0.385L0.061,-0.483C0.085,-0.487 0.112,-0.491 0.143,-0.495C0.174,-0.498 0.205,-0.501 0.237,-0.503C0.268,-0.505 0.296,-0.507 0.321,-0.507ZM0.453,-0.304L0.452,-0.221L0.232,-0.221C0.214,-0.22 0.201,-0.216 0.193,-0.207C0.185,-0.198 0.182,-0.187 0.182,-0.172L0.182,-0.148C0.182,-0.131 0.186,-0.118 0.196,-0.109C0.205,-0.1 0.22,-0.096 0.241,-0.096C0.258,-0.096 0.277,-0.1 0.297,-0.107C0.318,-0.114 0.338,-0.125 0.358,-0.138C0.378,-0.151 0.396,-0.167 0.412,-0.185L0.412,-0.121C0.406,-0.111 0.397,-0.098 0.385,-0.083C0.373,-0.068 0.358,-0.054 0.34,-0.039C0.322,-0.025 0.301,-0.013 0.277,-0.003C0.253,0.007 0.226,0.012 0.195,0.012C0.165,0.012 0.138,0.006 0.114,-0.004C0.09,-0.015 0.071,-0.03 0.057,-0.051C0.043,-0.072 0.036,-0.097 0.036,-0.128L0.036,-0.179C0.036,-0.218 0.049,-0.249 0.076,-0.271C0.103,-0.293 0.139,-0.304 0.186,-0.304L0.453,-0.304Z" style="fill:rgb(37,37,37);fill-rule:nonzero;"/>
                    </g>
                    <g transform="matrix(50,0,0,50,823.345,736.858)">
                        <path d="M0.176,-0.494L0.194,-0.396L0.208,-0.383L0.208,-0L0.061,-0L0.061,-0.494L0.176,-0.494ZM0.417,-0.507L0.403,-0.371L0.362,-0.371C0.339,-0.371 0.314,-0.367 0.289,-0.361C0.263,-0.354 0.231,-0.344 0.193,-0.33L0.183,-0.413C0.217,-0.443 0.252,-0.466 0.288,-0.483C0.323,-0.499 0.358,-0.507 0.391,-0.507L0.417,-0.507Z" style="fill:rgb(37,37,37);fill-rule:nonzero;"/>
                    </g>
                    <g transform="matrix(50,0,0,50,844.12,736.858)">
                        <path d="M0.205,-0.494L0.205,-0.169C0.205,-0.148 0.209,-0.134 0.218,-0.125C0.227,-0.116 0.242,-0.112 0.262,-0.112C0.282,-0.112 0.303,-0.115 0.323,-0.123C0.344,-0.131 0.369,-0.143 0.4,-0.16L0.411,-0.079C0.375,-0.048 0.34,-0.025 0.305,-0.01C0.271,0.006 0.235,0.014 0.198,0.014C0.104,0.014 0.058,-0.032 0.058,-0.124L0.058,-0.494L0.205,-0.494ZM0.532,-0.494L0.532,-0L0.416,-0L0.399,-0.097L0.384,-0.111L0.384,-0.494L0.532,-0.494Z" style="fill:rgb(37,37,37);fill-rule:nonzero;"/>
                    </g>
                </g>
            </g>
        </g>
    </g>
    <defs>
        <radialGradient id="_Radial1" cx="0" cy="0" r="1" gradientUnits="userSpaceOnUse" gradientTransform="matrix(-0.839389,191.595,-143.834,-0.873242,769.017,601.106)"><stop offset="0" style="stop-color:rgb(48,228,161);stop-opacity:1"/><stop offset="0.55" style="stop-color:rgb(48,207,178);stop-opacity:1"/><stop offset="1" style="stop-color:rgb(49,130,243);stop-opacity:1"/></radialGradient>
    </defs>
</svg>
